<?xml version="1.0" encoding="utf-8"?>
<!-- Generator: Adobe Illustrator 16.0.0, SVG Export Plug-In . SVG Version: 6.00 Build 0)  -->
<!DOCTYPE svg PUBLIC "-//W3C//DTD SVG 1.1//EN" "http://www.w3.org/Graphics/SVG/1.1/DTD/svg11.dtd">
<svg version="1.1" id="Layer_2" xmlns="http://www.w3.org/2000/svg" xmlns:xlink="http://www.w3.org/1999/xlink" x="0px" y="0px"
	 width="126px" height="126px" viewBox="0 0 126 126" enable-background="new 0 0 126 126" xml:space="preserve">
<g>
	<path d="M84.578,28.326c0.26-0.296,0.467-0.608,0.545-0.955h0.027v-0.11c0.014-0.095,0.066-0.184,0.066-0.284H85.15v-1.819
		c0.92-0.733,1.506-1.525,1.807-2.364c0.701-0.538,1.133-1.148,1.133-1.864c0-5.167-20.9-5.427-25.09-5.427
		s-25.09,0.261-25.09,5.427c0,0.905,0.668,1.652,1.75,2.282c0.262,0.525,0.654,1.039,1.174,1.525v2.635h0.123
		c0.068,0.3,0.219,0.575,0.422,0.836c-4.162,2.876-8.385,6.348-8.385,8.608v60.769c0,6.261,4.459,12.914,12.723,12.914h33.424
		c8.68,0,13.865-5.042,13.865-13.483v-59.06C93.006,34.928,87.883,30.727,84.578,28.326z M36.025,59.218
		c4.418,1.146,15.701,3.706,28.287,3.706c8.543,0,17.67-1.21,25.654-4.818v21.797c-19.426,9.607-48.068,2.854-53.936,1.308
		L36.025,59.218z M77.801,27.503v0.719c-1.051,0.198-2.229,0.389-3.617,0.555v-1.273h-2.713v1.541c-0.969,0.08-2.02,0.14-3.109,0.19
		v-1.73h-2.715v1.822c-0.857,0.018-1.688,0.048-2.605,0.048c-0.359,0-0.664-0.018-1.012-0.021v-1.849h-2.713v1.799
		c-1.598-0.051-3.102-0.125-4.465-0.235v-1.564h-2.713V28.8c-1.371-0.156-2.568-0.338-3.617-0.527v-0.77h-2.713v0.155
		c-0.344-0.098-0.668-0.189-0.936-0.288h36.332c-0.207,0.074-0.438,0.145-0.691,0.223v-0.09H77.801z M43.547,24.659v-0.027
		c0.037,0.009,0.08,0.017,0.119,0.027H43.547z M82.332,24.659c0.031-0.01,0.07-0.015,0.105-0.024v0.024H82.332z M40.912,20.929
		c1.807-1.06,9.26-2.715,22.088-2.715c12.824,0,20.281,1.656,22.086,2.715c-1.805,1.06-9.262,2.712-22.086,2.712
		C50.172,23.641,42.719,21.988,40.912,20.929z M44.23,29.952c5.48,1.991,16.094,2.133,18.811,2.133
		c2.686,0,13.119-0.139,18.646-2.071c4.492,3.112,8.279,6.712,8.279,7.941v16.806c-19.432,9.614-48.082,2.854-53.943,1.309
		L36.02,36.928C36.318,35.911,40.014,32.786,44.23,29.952z M79.141,107.46H45.717c-7.104,0-9.684-5.905-9.684-9.875l-0.002-13.222
		c4.424,1.146,15.699,3.704,28.281,3.704c8.543,0,17.67-1.211,25.654-4.819v13.768C89.967,105.647,84.078,107.46,79.141,107.46z"/>
	<path d="M41.123,40.822c0.566,0.187,9.633,3.139,22.127,3.139c6.436,0,13.781-0.783,21.344-3.13c0.801-0.249,1.248-1.101,1-1.902
		c-0.248-0.798-1.086-1.252-1.904-1c-21.27,6.599-41.406,0.077-41.605,0.009c-0.793-0.27-1.656,0.169-1.92,0.961
		C39.898,39.696,40.328,40.554,41.123,40.822z"/>
	<path d="M65.512,76.573c0.014,0.425,0.031,0.885,0.07,1.437l2.299-0.552c0.006-0.579,0.031-1.104,0.08-1.576
		c0.043-0.469,0.119-0.997,0.229-1.591c0.084-0.495,0.289-0.935,0.621-1.306c0.242-0.273,0.477-0.527,0.705-0.75
		c0.213-0.22,0.414-0.407,0.6-0.576c0.172-0.148,0.334-0.282,0.486-0.391c0.129-0.095,0.248-0.167,0.35-0.217
		c0.092-0.044,0.158-0.074,0.211-0.074c0.158,0,0.236,0.119,0.236,0.356c0,0.118-0.051,0.472-0.156,1.074
		c-0.102,0.603-0.193,1.059-0.27,1.365l-1.002,4.267l2.621-0.478l0.625-2.442l0.346-1.481c0.055-0.24,0.234-0.542,0.537-0.899
		c0.178-0.211,0.359-0.409,0.539-0.59c0.164-0.182,0.324-0.339,0.473-0.478c0.154-0.137,0.297-0.255,0.428-0.348
		c0.133-0.094,0.248-0.163,0.352-0.207c0.096-0.05,0.178-0.075,0.248-0.075c0.229,0,0.342,0.109,0.342,0.333
		c0,0.246-0.188,0.946-0.559,2.091c-0.375,1.143-0.561,2.086-0.561,2.831c0,0.531,0.133,0.958,0.4,1.273
		c0.264,0.312,0.625,0.469,1.078,0.469c0.582,0,1.18-0.214,1.795-0.635c0.613-0.418,1.35-1.05,2.213-1.89v-1.193
		c-0.799,0.858-1.361,1.404-1.678,1.641c-0.32,0.24-0.57,0.359-0.75,0.359c-0.283,0-0.426-0.193-0.426-0.578
		c0-0.375,0.205-1.14,0.611-2.3c0.406-1.161,0.609-2.107,0.609-2.846c0-0.468-0.121-0.857-0.363-1.157
		c-0.242-0.306-0.551-0.457-0.932-0.457c-0.428,0-0.895,0.178-1.402,0.531c-0.508,0.356-1.344,1.119-2.512,2.282
		c0.07-0.593,0.105-0.996,0.105-1.219c0-0.478-0.113-0.86-0.336-1.154c-0.227-0.294-0.516-0.439-0.877-0.439
		c-0.986,0-2.41,1.077-4.262,3.238c0.246-1.048,0.594-2.137,1.043-3.261l-2.504,0.486c-0.594,1.252-1.02,2.341-1.283,3.276
		c-0.219,0.78-0.324,1.697-0.361,2.7c-0.07,0.065-0.162,0.155-0.225,0.208c-0.322,0.291-0.617,0.433-0.887,0.433
		c-0.42,0-0.633-0.296-0.633-0.89c0-0.566,0.234-1.614,0.705-3.136l0.914-3.035h-0.58l-2.117,1.169
		c-0.344-0.792-0.945-1.187-1.813-1.187c-0.68,0-1.467,0.288-2.357,0.867c-0.891,0.579-1.619,1.341-2.189,2.275
		c-0.57,0.941-0.852,1.929-0.852,2.965c0,0.116,0.033,0.207,0.043,0.317c-0.654,0.51-1.391,0.955-2.291,1.264
		c0.33-1.157,0.717-3.299,1.156-6.415l0.154-1.036c0.182-1.258,0.396-2.273,0.652-3.05c0.25-0.774,0.535-1.416,0.85-1.914
		s0.473-0.798,0.473-0.894c0-0.147-0.27-0.249-0.809-0.311c-0.428,0.365-0.826,0.546-1.203,0.546c-0.266,0-0.594-0.086-0.979-0.27
		c-0.387-0.184-0.748-0.276-1.078-0.276c-1.008,0-2.006,0.507-2.99,1.528c-0.99,1.016-1.482,2.045-1.482,3.089
		c0,0.513,0.141,0.943,0.414,1.288c0.277,0.341,0.506,0.514,0.686,0.514c0.186,0,0.434-0.175,0.746-0.519
		c0.309-0.344,0.465-0.57,0.465-0.674c0-0.107-0.176-0.302-0.527-0.576c-0.355-0.27-0.529-0.624-0.529-1.05
		c0-0.496,0.199-0.938,0.598-1.327c0.395-0.391,0.852-0.585,1.367-0.585c0.313,0,0.664,0.083,1.057,0.247
		c0.393,0.168,0.73,0.249,1.006,0.249c0.461,0,1.025-0.178,1.697-0.537c-0.174,0.276-0.598,0.849-1.273,1.709
		c-0.678,0.869-1.176,1.632-1.502,2.291c-0.322,0.659-0.609,1.561-0.857,2.697c-0.248,1.146-0.635,3.276-1.158,6.382
		c-2.957,1.03-4.432,2.304-4.432,3.823c0,0.454,0.137,0.822,0.408,1.101c0.273,0.279,0.629,0.418,1.07,0.418
		c0.969,0,1.99-0.439,3.076-1.317c1.086-0.881,1.955-2.25,2.604-4.107c1.184-0.463,2.094-0.926,2.787-1.383
		c0.105,0.314,0.24,0.608,0.438,0.869c0.424,0.573,0.939,0.858,1.549,0.858c0.617,0,1.221-0.234,1.803-0.703
		c0.584-0.469,1.219-1.199,1.91-2.185c-0.059,1.923,0.455,2.888,1.541,2.888c0.438,0,0.893-0.161,1.369-0.478
		C64.584,77.375,65.012,77.016,65.512,76.573z M48.715,81.417c-0.5,0.555-0.984,0.836-1.443,0.836c-0.207,0-0.379-0.074-0.512-0.213
		c-0.135-0.146-0.201-0.323-0.201-0.534c0-1.06,1.127-1.994,3.385-2.795C49.625,79.959,49.215,80.861,48.715,81.417z M61.051,74.318
		c-0.613,1.175-1.264,1.763-1.953,1.763c-0.281,0-0.516-0.113-0.699-0.344c-0.182-0.231-0.273-0.534-0.273-0.905
		c0-0.988,0.307-2.068,0.928-3.24c0.615-1.175,1.27-1.76,1.959-1.76c0.289,0,0.523,0.11,0.695,0.327
		c0.172,0.213,0.258,0.516,0.258,0.905C61.965,72.052,61.658,73.141,61.051,74.318z"/>
</g>
</svg>
